<?xml version="1.0" standalone="no"?>
<!DOCTYPE svg PUBLIC "-//W3C//DTD SVG 20010904//EN"
 "http://www.w3.org/TR/2001/REC-SVG-20010904/DTD/svg10.dtd">
<svg version="1.0" xmlns="http://www.w3.org/2000/svg"
 width="900.000000pt" height="900.000000pt" viewBox="0 0 900.000000 900.000000"
 preserveAspectRatio="xMidYMid meet">

<g transform="translate(0.000000,900.000000) scale(0.100000,-0.100000)"
fill="#000000" stroke="none">
<path d="M5184 7253 c-110 -162 -126 -186 -426 -623 -320 -469 -340 -499 -335
-513 3 -8 90 -138 194 -289 103 -151 238 -347 298 -436 61 -90 162 -238 225
-330 64 -92 167 -242 230 -335 63 -92 150 -218 192 -280 42 -61 108 -158 147
-214 39 -56 71 -104 71 -107 0 -3 -246 -7 -547 -8 l-548 -3 0 -755 0 -755 560
0 560 0 3 178 c1 97 1 178 0 179 -2 1 -154 5 -338 8 l-335 5 -3 95 c-2 52 0
105 3 118 l5 22 270 0 270 0 -2 168 -3 167 -267 3 -268 2 -5 23 c-3 12 -5 58
-3 102 l3 80 335 5 335 5 3 178 2 177 197 -2 196 -3 93 -135 c51 -74 119 -173
151 -219 32 -47 63 -86 68 -87 11 -3 16 3 192 264 l124 182 225 0 c123 0 224
-2 224 -5 0 -3 -42 -66 -92 -140 -86 -125 -285 -416 -395 -578 l-46 -68 19
-32 c18 -32 161 -241 374 -550 l105 -152 668 -3 c596 -2 667 0 667 13 0 9 -84
138 -187 288 -237 346 -461 673 -633 926 -74 108 -279 408 -455 664 -176 257
-362 529 -413 604 -52 76 -160 235 -241 353 -290 422 -584 852 -1048 1532
-164 240 -301 437 -305 438 -4 0 -55 -71 -114 -157z"/>
<path d="M1238 4101 c-73 -24 -116 -51 -166 -105 -86 -93 -95 -143 -90 -502 3
-232 5 -273 20 -301 28 -51 74 -77 143 -81 61 -4 62 -3 116 42 90 76 160 121
234 151 62 25 89 29 230 36 88 4 172 12 186 17 109 42 139 185 58 277 -39 44
-79 55 -209 55 -127 0 -264 -21 -358 -55 -38 -14 -72 -25 -76 -25 -3 0 -6 40
-6 89 0 64 4 94 14 104 11 11 60 16 198 21 284 10 362 -6 445 -97 53 -57 68
-88 83 -163 21 -106 -23 -225 -108 -293 -68 -53 -98 -61 -239 -61 -252 0 -377
-38 -500 -153 -100 -94 -113 -128 -113 -310 l0 -147 163 2 162 3 6 90 c3 50
11 100 17 111 19 36 68 49 182 49 148 0 168 -12 395 -243 99 -101 195 -192
213 -204 44 -27 134 -22 179 10 61 44 84 147 46 217 -10 18 -78 95 -150 170
-73 76 -133 140 -133 144 0 4 27 29 60 54 105 82 192 222 225 360 18 77 19
234 1 307 -40 166 -161 311 -323 387 -126 58 -162 63 -523 62 -286 0 -332 -2
-382 -18z"/>
<path d="M2642 4112 c-10 -7 -12 -165 -10 -758 l3 -749 228 -3 227 -2 -2 757
-3 758 -215 2 c-118 2 -221 -1 -228 -5z"/>
<path d="M3266 4111 c-3 -5 -6 -346 -6 -757 l-1 -749 186 -3 186 -2 -3 450
c-2 247 -2 450 -1 450 2 0 25 -44 52 -97 40 -80 231 -399 445 -745 l36 -58
185 0 185 0 -2 758 -3 757 -180 0 -180 0 0 -315 c0 -173 4 -348 8 -387 5 -40
5 -73 0 -73 -4 0 -25 33 -45 73 -21 39 -127 214 -236 387 l-197 315 -212 3
c-119 1 -214 -2 -217 -7z"/>
<path d="M6240 3278 c-27 -46 -131 -213 -229 -373 -98 -159 -177 -293 -174
-297 2 -5 96 -8 208 -8 l203 0 126 215 c69 118 126 218 126 221 0 13 -192 324
-200 324 -5 0 -32 -37 -60 -82z"/>
</g>
</svg>
