<svg width="2794" height="881" viewBox="0 0 2794 881" fill="none" xmlns="http://www.w3.org/2000/svg">
<path d="M2774.09 0.581078C2772.09 2.58108 2773.16 6.58108 2775.56 6.18108C2776.76 5.91441 2777.83 4.58108 2777.83 3.24775C2777.83 0.581078 2775.69 -0.885588 2774.09 0.581078Z" fill="#FEF2EF"/>
<path d="M2790.49 7.91447C2790.49 8.58114 2791.16 8.8478 2791.83 8.4478C2792.63 8.0478 2793.16 7.38114 2793.16 6.98114C2793.16 6.71447 2792.63 6.4478 2791.83 6.4478C2791.16 6.4478 2790.49 7.11447 2790.49 7.91447Z" fill="#FEF2EF"/>
<path d="M192.759 77.514C192.359 78.5807 191.692 83.3807 191.159 88.4474L190.092 97.6474L187.159 94.1807C185.426 92.1807 183.959 90.0474 183.692 89.2474C183.426 88.4474 180.226 87.6474 176.626 87.514L170.092 87.114L168.492 94.714C167.159 101.781 165.159 106.314 165.159 102.714C165.159 99.114 159.826 95.7807 153.959 95.7807C150.092 95.7807 147.026 94.8474 144.759 92.9807L141.159 90.314L138.492 94.714C137.026 97.114 135.559 99.6474 135.292 100.447C134.892 101.114 133.559 100.314 132.092 98.5807C129.826 95.7807 129.159 95.6474 126.359 97.114C124.626 98.0474 120.226 101.514 116.492 104.714C112.892 107.914 107.826 111.247 105.559 112.047C102.626 113.114 101.159 114.581 101.159 116.447C100.226 159.247 96.6256 180.714 83.6923 221.114C77.4256 240.714 73.6923 255.114 72.4923 264.581C71.8256 270.314 70.7589 272.181 65.9589 276.714C62.4923 280.047 59.1589 284.714 57.6923 288.581C54.7589 296.847 55.0256 296.714 52.2256 293.247L49.8256 290.447L36.4923 296.447C20.7589 303.514 15.2923 307.647 11.0256 315.781C7.4256 322.447 6.75894 332.581 9.29227 341.114C10.6256 345.381 10.4923 346.714 8.6256 349.247C5.69227 353.514 5.95894 356.714 9.15894 357.781C13.0256 358.981 12.4923 361.781 7.8256 365.114C5.55894 366.714 2.75894 369.914 1.69227 372.181C-1.3744 378.047 -0.174397 394.581 4.49227 409.781C13.1589 437.781 14.7589 445.781 15.4256 460.714C16.0923 474.581 15.9589 476.314 12.4923 485.647C9.15894 494.714 8.89227 496.714 9.8256 505.914C10.3589 511.647 12.4923 521.647 14.6256 528.181C21.4256 548.714 24.0923 561.914 23.6923 573.514C23.2923 583.247 23.5589 584.314 26.3589 586.581C27.9589 587.914 32.3589 589.514 36.0923 589.914C39.9589 590.447 43.9589 591.914 45.2923 593.247C48.6256 596.581 48.4923 603.381 45.0256 608.981C42.3589 613.381 42.3589 614.314 43.6923 631.247C46.4923 664.581 55.5589 699.514 66.0923 718.047C67.9589 721.247 71.8256 725.647 74.8923 728.047C77.9589 730.447 84.7589 736.047 89.9589 740.581C101.826 750.714 109.292 755.914 117.426 759.514C124.492 762.581 124.626 762.847 125.826 778.447C126.892 792.447 132.626 814.714 137.826 825.781C142.359 835.381 146.092 839.381 169.559 860.181C181.426 870.714 185.026 871.781 195.426 868.314L202.759 865.781L205.292 868.981C206.626 870.714 207.826 873.247 207.826 874.581C207.826 876.581 208.492 876.847 211.826 876.314C214.492 875.781 216.359 876.181 217.826 877.647C222.092 881.781 226.359 881.781 230.892 877.381C238.226 870.447 240.626 869.781 257.159 869.781C277.159 869.781 282.892 867.247 299.559 851.247C311.692 839.514 316.492 836.581 321.692 837.914C323.292 838.314 328.492 837.114 333.426 835.247C347.026 830.181 358.759 829.114 387.559 830.181L413.292 831.114L409.159 837.514C407.026 840.981 405.159 844.447 405.159 845.114C405.159 846.714 418.892 848.314 422.626 847.114C424.359 846.447 427.292 845.114 429.026 844.047C431.826 842.181 431.959 841.247 431.292 835.781L430.492 829.514L455.426 828.714C469.292 828.181 493.959 827.247 510.359 826.447C528.626 825.647 666.092 824.981 861.959 824.714L1183.56 824.447L1186.76 827.381L1189.83 830.314L1196.36 826.047C1202.49 822.181 1204.09 821.781 1218.36 820.981C1269.03 817.914 1267.83 818.047 1267.83 815.114C1267.83 811.514 1263.56 810.847 1242.89 811.514C1221.83 812.181 1217.43 810.981 1229.43 808.047C1232.63 807.247 1236.36 805.647 1237.83 804.447C1240.49 802.447 1240.49 802.447 1236.49 798.981C1228.36 791.914 1218.89 789.114 1210.89 791.247C1207.29 792.314 1207.03 794.181 1210.23 796.714C1211.43 797.781 1211.96 798.847 1211.16 799.247C1201.16 803.914 1196.49 807.381 1196.49 810.447C1196.49 813.781 1196.23 813.781 1185.83 813.781C1168.63 813.647 1135.83 811.514 1135.16 810.314C1134.76 809.781 1137.96 808.981 1142.09 808.447C1146.36 808.047 1151.16 807.114 1152.89 806.447C1155.43 805.247 1155.69 804.847 1154.23 802.447C1152.76 800.181 1153.16 799.247 1157.16 795.114C1161.56 790.581 1161.96 790.447 1171.69 790.447C1177.29 790.447 1186.63 789.247 1192.49 787.781C1198.36 786.314 1204.89 785.114 1207.03 785.114C1210.23 785.114 1210.63 784.714 1210.09 782.314C1209.16 778.981 1209.43 778.847 1225.56 776.714L1238.63 774.981L1242.63 778.714C1244.76 780.847 1248.23 783.247 1250.23 783.914C1255.43 786.047 1275.29 785.914 1277.83 783.781C1280.36 781.647 1279.16 779.781 1275.03 779.781C1273.29 779.781 1271.83 779.114 1271.83 778.447C1271.83 777.647 1272.89 777.114 1274.23 777.114C1275.43 777.114 1284.36 776.181 1293.83 775.247C1306.23 773.914 1313.03 773.781 1317.83 774.714C1323.96 775.914 1325.16 775.647 1331.03 772.581C1339.16 768.314 1340.36 768.314 1349.03 772.581C1355.96 776.047 1356.09 776.047 1357.83 773.514C1358.89 772.047 1361.69 770.447 1363.96 769.914C1368.23 769.114 1368.23 769.114 1367.43 762.581L1366.63 756.047L1416.76 755.114C1444.36 754.581 1472.36 754.447 1479.03 754.981C1496.36 756.047 1520.63 754.181 1523.43 751.381C1525.43 749.514 1525.16 749.247 1520.36 748.314C1515.03 747.381 1415.69 748.447 1374.89 750.047L1351.83 750.847V747.914C1351.83 746.314 1349.69 742.981 1347.16 740.314C1344.63 737.781 1342.49 734.447 1342.49 732.981C1342.49 730.447 1342.36 730.314 1338.63 732.581C1331.83 736.581 1322.76 731.647 1328.63 727.114C1332.63 724.181 1341.16 724.714 1348.09 728.447C1353.69 731.381 1355.29 731.647 1365.03 730.847C1375.56 730.047 1375.83 730.181 1380.36 734.181C1389.03 741.781 1397.03 741.381 1407.16 732.981C1416.23 725.514 1419.56 724.047 1430.49 722.447C1439.69 721.114 1492.76 720.847 1497.69 722.047C1499.69 722.581 1499.83 722.981 1498.36 724.047C1497.03 724.981 1497.16 725.114 1499.16 724.581C1506.89 722.581 1531.96 720.047 1537.69 720.714C1541.16 721.114 1548.23 720.714 1553.16 719.781C1561.43 718.181 1562.76 718.314 1567.43 720.447C1575.56 724.447 1584.36 724.447 1598.49 720.714C1624.36 713.914 1644.49 712.981 1664.49 717.781C1673.56 719.914 1680.89 718.714 1686.49 714.314L1689.83 711.647L1677.69 712.447C1667.83 713.114 1664.49 712.847 1659.69 710.847L1653.83 708.581L1659.16 707.514C1662.09 706.981 1669.03 706.581 1674.49 706.447C1679.96 706.447 1688.09 705.514 1692.49 704.447C1703.83 701.647 1704.89 701.781 1701.56 705.514C1700.09 707.114 1697.29 711.247 1695.43 714.714C1693.43 718.047 1689.96 722.447 1687.69 724.181L1683.56 727.381L1698.63 730.314C1722.23 734.714 1739.96 736.181 1762.49 735.514C1776.76 735.114 1784.63 734.314 1787.83 732.847C1792.36 730.981 1791.83 730.847 1773.16 730.047C1754.89 729.381 1732.63 726.047 1729.96 723.647C1729.29 722.981 1730.23 721.914 1732.36 721.247C1736.89 719.514 1738.36 715.914 1735.43 713.781C1730.49 710.181 1733.03 708.314 1744.63 706.981C1754.63 705.781 1756.49 704.181 1754.76 698.314C1754.09 695.781 1753.03 692.847 1752.63 691.647C1751.16 688.181 1759.03 685.381 1777.29 682.981C1788.49 681.514 1797.83 681.114 1806.23 681.647C1817.03 682.447 1819.43 682.181 1824.89 679.781C1829.69 677.647 1830.63 676.714 1829.16 675.781C1826.09 673.781 1793.43 674.181 1772.49 676.447C1749.83 678.847 1744.76 678.847 1753.56 676.447C1757.03 675.514 1760.76 673.914 1761.83 673.114C1764.23 671.114 1764.49 666.581 1762.23 665.914C1755.03 663.781 1755.16 663.914 1758.23 660.714C1759.69 659.114 1761.29 656.181 1761.83 654.314C1763.16 648.847 1756.76 646.447 1742.49 647.381C1733.69 647.914 1730.63 647.514 1728.49 646.047C1724.36 642.847 1727.83 640.314 1737.83 639.381C1750.49 638.181 1759.69 632.447 1757.96 626.714C1756.23 621.247 1771.29 618.447 1788.49 621.114C1797.83 622.581 1802.76 622.447 1819.83 620.847C1840.36 618.714 1844.23 617.514 1841.43 614.047C1839.43 611.647 1840.76 610.447 1845.29 610.447C1852.36 610.447 1855.83 617.514 1849.83 619.781C1845.96 621.247 1845.69 622.714 1848.49 625.114C1849.56 626.047 1850.49 627.514 1850.49 628.447C1850.49 630.181 1843.96 633.114 1840.23 633.114C1839.29 633.114 1836.23 634.047 1833.56 635.114L1828.63 637.247L1831.96 639.514C1834.76 641.514 1839.03 641.781 1868.49 641.647C1899.43 641.647 1902.36 641.381 1909.29 638.714C1925.16 632.447 1924.09 631.914 1896.63 632.714C1872.23 633.514 1871.43 633.381 1872.36 630.981C1872.89 629.647 1873.69 626.447 1874.09 624.181C1874.49 621.781 1875.83 619.514 1877.03 619.247C1883.29 617.381 1932.63 615.514 1956.23 616.047C1986.49 616.847 1992.89 615.914 2000.23 608.981L2004.49 604.847L1988.49 605.647C1978.76 606.181 1973.03 606.047 1973.83 605.247C1975.96 603.247 1989.29 599.781 1995.03 599.781C1998.09 599.781 2005.03 599.114 2010.49 598.314C2023.43 596.447 2028.09 597.914 2027.03 603.514C2025.69 609.914 2032.76 612.581 2044.23 610.181C2051.16 608.714 2053.16 606.314 2050.36 602.981C2049.03 601.247 2049.03 600.714 2050.63 599.647C2053.96 597.514 2055.83 598.314 2058.76 603.247L2061.69 608.181L2074.49 607.247C2088.63 606.314 2097.29 604.181 2094.23 602.314C2093.29 601.647 2090.63 601.114 2088.23 601.114C2078.89 601.114 2082.76 596.581 2093.29 594.981C2101.43 593.914 2107.83 591.781 2107.83 590.314C2107.83 589.647 2072.89 589.114 2020.49 589.114C1946.36 589.114 1932.36 588.847 1928.36 587.114C1922.89 584.847 1923.29 583.247 1930.09 580.981C1935.83 579.114 1946.49 580.047 1961.03 583.781C1976.36 587.647 1987.83 588.314 2010.63 586.447C2026.89 585.114 2032.09 584.314 2035.69 582.047C2039.69 579.647 2041.43 579.514 2053.43 580.314L2066.89 581.114L2077.03 576.181C2085.96 571.647 2088.23 571.114 2097.16 571.114C2104.09 571.114 2107.16 571.647 2107.29 572.714C2107.43 573.647 2107.56 575.114 2107.69 575.781C2107.96 578.047 2114.89 575.647 2117.96 572.314C2122.23 567.914 2128.63 566.714 2153.16 565.781C2173.69 564.847 2175.56 564.981 2181.16 567.647C2188.49 570.981 2195.83 571.247 2201.56 568.181C2205.43 566.181 2205.56 565.914 2203.16 564.981C2201.69 564.447 2197.69 563.914 2194.23 563.914C2187.03 563.781 2184.76 561.514 2188.89 558.714C2190.49 557.647 2191.83 555.914 2191.83 554.981C2191.83 552.847 2191.56 552.847 2184.63 554.447C2181.29 555.114 2178.49 555.114 2176.89 554.314C2172.49 551.914 2174.36 550.447 2181.83 550.447C2185.83 550.447 2191.83 549.781 2195.03 548.847C2200.63 547.381 2201.16 547.514 2209.69 552.581C2217.29 557.114 2218.09 558.047 2216.23 559.381C2213.43 561.514 2215.16 563.647 2224.09 568.447C2231.83 572.714 2237.69 573.247 2255.56 571.114C2262.09 570.447 2270.49 570.581 2280.89 571.781L2296.36 573.647L2303.03 569.781C2307.96 566.981 2312.36 565.781 2319.16 565.247C2328.09 564.447 2328.49 564.314 2328.49 560.981C2328.49 555.381 2331.16 553.514 2340.89 552.581C2367.03 550.047 2367.03 550.047 2375.96 552.981C2382.76 555.381 2385.29 555.647 2388.23 554.581C2390.23 553.781 2391.83 552.714 2391.83 552.181C2391.83 550.181 2370.63 542.447 2363.03 541.647C2352.89 540.447 2355.96 539.381 2378.23 536.447C2397.16 533.914 2401.83 531.914 2398.09 528.047C2396.23 526.314 2393.43 526.314 2373.56 528.447C2350.36 530.847 2346.63 531.914 2341.29 537.514L2338.23 540.981L2343.29 541.781C2346.23 542.314 2349.16 542.847 2349.83 542.981C2352.89 543.914 2332.36 549.114 2325.96 549.114C2317.96 549.114 2316.23 548.181 2315.69 543.781C2315.16 540.581 2314.76 540.447 2305.16 540.447C2299.69 540.447 2292.23 540.981 2288.49 541.647C2284.89 542.314 2282.23 542.447 2282.63 541.914C2283.69 540.847 2301.69 535.781 2304.63 535.781C2307.56 535.781 2315.83 531.781 2315.83 530.314C2315.83 528.447 2297.03 528.981 2288.89 531.114C2284.76 532.181 2278.63 534.847 2275.16 536.981C2266.23 542.714 2259.43 543.381 2245.43 540.047C2234.09 537.247 2232.23 537.247 2176.49 538.447C2101.96 540.047 2057.03 540.047 2054.49 538.447C2053.43 537.781 2053.16 537.114 2053.83 536.981C2062.63 536.181 2099.16 534.314 2103.16 534.447C2129.69 535.381 2161.56 533.381 2172.49 530.047L2181.83 527.114L2170.49 526.447L2159.16 525.781L2166.49 524.714C2170.49 524.181 2182.89 523.114 2193.83 522.447C2240.49 519.381 2247.83 518.581 2259.16 514.981C2269.03 511.781 2270.63 511.514 2274.36 513.114C2276.63 514.047 2279.83 516.581 2281.29 518.581C2284.36 522.847 2288.49 523.514 2294.23 520.581C2299.29 518.047 2316.49 515.781 2330.76 515.781C2342.63 515.781 2343.16 515.647 2349.96 510.981C2356.36 506.581 2358.49 505.914 2375.43 503.514C2397.69 500.181 2404.49 498.447 2404.49 495.781C2404.49 494.714 2402.49 493.381 2400.23 492.581C2397.83 491.914 2395.83 490.581 2395.83 489.647C2395.83 488.714 2394.76 486.981 2393.56 485.647C2391.56 483.781 2389.56 483.514 2378.49 484.314C2349.16 486.314 2261.96 487.781 2227.83 486.847L2191.16 485.781L2220.49 485.114C2243.03 484.581 2250.63 484.047 2253.16 482.447C2256.36 480.581 2255.83 480.447 2243.43 479.514C2233.56 478.847 2229.16 477.914 2225.83 475.781C2223.29 474.181 2221.16 472.447 2221.16 471.914C2221.16 471.381 2225.83 470.847 2231.69 470.847C2252.23 470.714 2318.23 467.647 2344.23 465.514C2374.49 463.114 2383.83 463.647 2407.83 469.114C2425.29 473.114 2446.76 475.381 2451.56 473.781C2456.36 472.314 2454.89 469.514 2448.49 467.914C2444.49 466.981 2442.49 465.647 2442.49 464.314C2442.49 463.114 2440.63 460.447 2438.36 458.314L2434.23 454.447L2438.49 446.981C2440.76 442.847 2442.49 439.381 2442.23 439.114C2441.96 438.981 2438.09 436.314 2433.43 433.514L2425.03 428.181L2417.43 431.247C2413.29 432.981 2407.03 434.714 2403.56 435.247C2397.96 436.047 2397.16 436.581 2397.16 439.247C2397.16 440.981 2395.96 442.981 2394.63 443.781C2391.29 445.514 2369.83 445.514 2366.63 443.781C2365.29 443.114 2363.16 440.181 2361.96 437.247C2359.56 431.114 2355.16 429.114 2349.69 431.647C2345.69 433.381 2345.56 435.247 2349.56 436.447C2352.36 437.247 2352.23 437.381 2348.23 439.247C2343.03 441.514 2342.63 443.381 2346.89 444.981C2351.29 446.714 2348.09 447.381 2331.69 448.447L2317.56 449.247L2318.09 445.914C2318.63 443.514 2317.96 442.314 2315.69 441.114C2311.83 438.981 2313.96 437.781 2324.09 436.581C2338.76 434.714 2333.69 433.114 2313.56 433.114C2299.56 433.114 2293.16 432.581 2291.83 431.514C2290.89 430.581 2291.03 431.247 2292.23 433.114C2295.03 437.247 2295.16 441.114 2292.49 441.114C2289.56 441.114 2290.09 444.847 2293.16 445.781C2297.29 447.114 2296.36 448.847 2290.89 449.914C2286.63 450.714 2285.69 450.447 2283.56 447.247C2280.09 442.581 2276.36 442.847 2273.83 447.781C2271.83 451.781 2271.56 451.781 2261.43 451.647C2253.69 451.514 2252.36 451.247 2255.83 450.581C2258.49 450.047 2261.43 449.114 2262.49 448.447C2265.16 446.847 2260.23 445.381 2251.16 445.247C2247.56 445.114 2243.69 444.581 2242.76 443.914C2240.89 442.847 2249.43 441.647 2270.49 439.914C2286.49 438.714 2289.29 436.447 2279.56 432.581L2273.83 430.314L2277.43 427.647C2279.56 426.047 2280.76 424.181 2280.23 423.114C2279.29 420.447 2295.16 420.447 2305.16 423.114C2314.36 425.514 2325.16 425.647 2333.96 423.247C2338.49 422.047 2342.76 421.781 2347.29 422.581C2355.56 423.914 2379.03 423.914 2390.89 422.581C2395.96 422.047 2402.89 421.914 2406.23 422.447C2414.76 423.514 2419.03 422.314 2419.56 418.714C2419.96 416.581 2419.16 415.647 2416.63 414.981C2412.76 414.047 2412.36 412.847 2415.03 410.581C2418.09 408.047 2415.96 404.447 2409.69 401.381C2406.49 399.781 2403.83 397.914 2403.83 397.247C2403.83 394.581 2429.16 388.581 2437.16 389.381C2440.76 389.647 2441.69 390.314 2441.43 392.047C2441.16 393.381 2441.69 394.447 2442.49 394.447C2443.16 394.447 2443.83 393.914 2443.83 393.247C2443.83 390.981 2447.43 390.714 2455.29 392.581C2466.23 395.114 2499.69 395.114 2503.29 392.581C2504.63 391.514 2505.29 390.181 2504.76 389.514C2504.09 388.981 2497.16 388.181 2489.16 387.781C2481.16 387.381 2474.36 386.714 2473.83 386.181C2472.49 384.847 2477.16 382.847 2484.23 381.914C2487.69 381.381 2490.49 380.581 2490.49 380.047C2490.49 379.514 2486.76 378.314 2482.23 377.514C2477.83 376.581 2473.16 374.981 2471.96 373.914C2470.09 371.914 2471.29 371.781 2484.49 371.781C2492.63 371.781 2515.16 372.447 2534.63 373.114C2565.03 374.314 2571.69 374.181 2581.29 372.314C2587.43 371.247 2596.49 369.914 2601.56 369.514C2606.49 369.114 2610.49 368.314 2610.49 367.781C2610.49 365.381 2606.49 364.047 2597.56 363.114C2577.96 361.247 2588.89 360.447 2630.23 360.847C2679.83 361.247 2713.43 362.847 2734.89 365.914C2749.56 368.047 2754.49 367.914 2754.49 365.381C2754.49 364.181 2738.23 361.114 2709.16 356.981C2692.89 354.714 2680.89 354.181 2633.03 353.781C2546.36 352.847 2480.36 349.247 2477.83 345.114C2477.56 344.581 2483.03 343.247 2490.09 342.314C2502.36 340.714 2502.76 340.447 2497.83 339.514C2477.43 335.247 2463.96 334.181 2412.49 332.981C2382.49 332.314 2347.96 331.247 2335.83 330.714L2313.83 329.781L2329.16 328.847C2339.16 328.181 2353.69 328.581 2371.16 329.781C2393.29 331.514 2402.36 331.514 2424.49 330.314C2444.63 329.114 2461.56 329.114 2493.16 330.181C2535.16 331.647 2543.03 331.381 2542.09 328.581C2541.83 327.647 2535.29 326.714 2525.03 326.181C2515.96 325.647 2495.96 324.447 2480.49 323.514C2465.16 322.581 2443.16 321.781 2431.69 321.781C2420.36 321.647 2410.23 321.114 2409.43 320.581C2406.49 318.847 2407.83 317.114 2412.23 317.114C2414.49 317.114 2417.29 316.581 2418.36 315.914C2420.76 314.314 2413.43 312.314 2399.56 310.447C2389.03 309.114 2226.36 309.781 2214.89 311.247C2208.76 311.914 2207.96 311.781 2207.16 309.247C2206.76 307.647 2204.76 304.581 2202.89 302.447C2199.96 298.981 2198.76 298.447 2192.63 298.447C2186.76 298.447 2184.89 297.781 2181.29 294.581C2175.29 289.247 2167.29 287.514 2148.89 287.914C2133.03 288.181 2130.09 287.647 2132.89 284.847C2133.96 283.781 2141.56 283.381 2157.56 283.647C2177.96 283.914 2181.03 283.647 2183.03 281.647C2184.36 280.447 2184.89 278.981 2184.23 278.447C2183.69 278.047 2171.29 277.914 2156.89 278.181L2130.49 278.714L2126.63 282.714L2122.63 286.714L2117.29 282.981C2114.36 280.847 2111.83 278.447 2111.83 277.647C2111.83 275.914 2150.89 273.514 2155.43 274.981C2157.03 275.514 2162.89 274.847 2168.63 273.647C2180.09 271.381 2183.69 271.247 2207.43 272.447C2222.63 273.381 2224.23 273.247 2229.43 270.447C2233.69 268.181 2238.76 267.247 2251.16 266.447C2310.63 262.181 2312.09 262.047 2331.69 263.514C2342.36 264.447 2373.43 265.381 2400.49 265.914C2444.63 266.581 2450.09 266.447 2451.69 264.581C2453.16 262.847 2452.89 262.314 2449.69 260.981C2444.89 259.247 2421.03 257.247 2403.16 256.981C2387.69 256.847 2381.16 255.381 2389.83 253.781C2397.03 252.581 2398.49 252.047 2398.49 250.847C2398.36 247.514 2395.56 246.447 2386.76 246.181C2378.89 245.914 2376.63 246.314 2373.43 248.714C2370.89 250.581 2369.03 251.114 2367.69 250.314C2365.16 248.714 2354.89 248.847 2351.83 250.447C2346.09 253.514 2329.56 255.114 2310.49 254.447C2299.03 254.047 2291.83 253.381 2292.89 252.581C2293.83 252.047 2301.69 251.647 2310.23 251.781C2318.76 252.047 2328.49 252.047 2331.83 251.914L2337.83 251.781L2331.83 247.781C2326.36 244.314 2325.16 243.914 2321.16 245.114C2318.63 245.914 2310.89 246.447 2304.09 246.447C2287.16 246.447 2281.96 243.514 2290.89 238.981C2294.49 237.114 2300.49 236.581 2328.36 236.181C2360.63 235.781 2361.56 235.781 2359.43 238.181C2356.23 241.647 2356.63 243.647 2360.76 244.714C2365.96 245.914 2385.03 243.381 2397.69 239.647C2408.23 236.581 2408.23 236.581 2404.36 234.847C2402.23 234.047 2395.96 233.114 2390.49 233.114C2381.96 232.847 2381.16 232.714 2384.49 231.647C2386.89 230.847 2397.83 230.581 2411.16 231.114C2423.69 231.514 2434.63 231.381 2435.56 230.714C2438.49 228.714 2395.43 222.314 2367.83 220.447C2350.09 219.247 2348.76 218.981 2349.96 215.514C2351.03 212.047 2348.63 210.447 2342.09 210.447C2337.83 210.447 2336.63 211.114 2334.76 214.447C2332.09 219.114 2332.89 218.981 2305.83 217.114C2287.29 215.781 2269.16 212.447 2269.16 210.447C2269.16 209.781 2269.83 208.847 2270.49 208.447C2271.56 207.781 2271.43 206.847 2270.36 205.514C2267.16 201.781 2260.49 199.381 2253.16 199.381C2244.76 199.381 2245.03 199.247 2257.56 196.581L2266.63 194.714L2271.83 198.981C2274.76 201.247 2279.56 205.114 2282.63 207.381C2285.69 209.781 2289.16 211.781 2290.49 211.781C2293.96 211.781 2297.16 208.181 2297.16 204.447C2297.16 199.781 2301.69 197.381 2314.49 195.114C2328.63 192.581 2332.49 189.781 2326.23 186.714C2323.83 185.514 2327.69 185.247 2343.29 185.514L2363.56 185.781L2370.23 192.047C2377.83 199.114 2377.29 198.981 2384.23 196.981C2387.83 196.047 2389.16 194.981 2388.89 193.381C2388.23 188.847 2389.96 188.314 2403.43 189.381C2423.69 190.847 2444.23 193.247 2446.49 194.447C2450.23 196.581 2435.43 197.514 2423.69 195.914C2417.43 195.114 2410.49 194.447 2408.36 194.447L2404.49 194.581L2407.83 196.447C2419.43 202.714 2466.36 204.581 2493.69 199.914C2501.56 198.447 2508.76 196.714 2509.43 196.047C2510.23 195.247 2508.49 194.047 2504.23 192.714C2491.96 188.714 2476.63 186.981 2438.36 185.114C2423.43 184.447 2402.23 182.581 2391.16 180.981C2374.36 178.581 2362.36 177.914 2315.83 177.247L2260.49 176.447L2258.76 172.714C2257.69 170.714 2255.29 168.314 2253.43 167.647C2248.23 165.647 2234.89 167.514 2227.16 171.381C2219.96 175.114 2219.03 175.114 2189.16 170.314C2178.49 168.581 2160.63 168.314 2150.09 169.781L2143.56 170.581L2147.56 165.514C2149.83 162.714 2151.83 159.247 2152.09 157.781C2152.49 155.381 2151.56 154.981 2143.03 154.314C2132.23 153.247 2125.16 151.914 2125.16 150.714C2125.16 150.314 2126.09 148.981 2127.29 147.647C2130.49 144.181 2128.63 140.714 2121.16 136.047C2117.16 133.514 2114.23 130.714 2113.83 128.714C2113.03 125.781 2111.69 125.247 2095.43 122.447C2071.83 118.314 2065.83 117.914 2057.69 119.647C2049.03 121.647 2047.16 123.514 2049.29 128.314C2050.63 131.114 2050.49 132.181 2048.76 134.181C2045.83 137.514 2045.96 138.714 2049.43 140.981C2052.23 142.714 2052.23 142.847 2049.69 144.714C2047.83 146.047 2044.89 146.314 2038.09 145.647C2029.83 144.847 2028.76 144.981 2025.83 147.781C2021.69 151.647 2023.43 154.447 2030.09 154.447C2032.63 154.447 2035.96 155.114 2037.43 155.914C2040.23 157.381 2040.23 157.514 2037.03 159.247C2031.29 162.447 2010.49 161.247 2010.49 157.781C2010.49 155.647 2005.03 153.781 1991.29 151.114C1977.69 148.447 1959.69 148.581 1947.16 151.381C1937.43 153.514 1936.89 153.514 1932.09 150.981C1927.56 148.714 1923.03 148.447 1881.83 147.781C1841.43 147.114 1839.69 146.981 1865.83 146.714C1917.96 146.181 1930.49 144.981 1930.49 140.314C1930.49 137.914 1925.16 135.781 1919.16 135.781C1913.69 135.781 1912.76 134.581 1913.96 128.447C1914.76 123.914 1915.03 123.781 1920.63 123.781C1923.96 123.781 1928.76 124.714 1931.43 125.781C1933.96 126.847 1937.69 127.781 1939.69 127.781C1943.16 127.781 1944.63 126.981 1955.83 119.114L1961.56 115.114L1949.03 113.247C1935.29 111.247 1895.96 110.447 1890.23 112.181C1885.69 113.381 1885.43 115.781 1889.43 118.314L1892.49 120.314L1889.16 121.247C1887.29 121.781 1814.09 122.181 1726.49 122.314C1522.76 122.447 1155.69 124.847 1035.16 126.714C983.826 127.514 935.559 127.914 927.826 127.647C906.359 126.981 890.226 127.247 812.492 129.114C772.892 130.047 710.226 130.981 673.159 131.114C634.492 131.247 601.692 132.047 596.092 132.847C590.892 133.514 585.426 133.914 584.092 133.647C582.892 133.381 568.892 132.314 553.159 131.114C537.292 130.047 522.359 128.447 519.826 127.781C517.292 126.981 503.426 125.781 489.159 125.114C474.892 124.447 461.959 123.514 460.492 123.247C457.426 122.447 419.026 119.247 388.492 117.114C362.626 115.381 352.626 113.914 329.159 108.447C318.492 106.047 306.892 103.647 303.159 103.247C292.492 101.914 245.292 104.581 239.026 106.847L233.559 108.847L230.626 102.847C228.626 98.5807 227.159 97.114 225.692 97.6474C224.492 98.0474 222.759 98.4474 221.692 98.4474C218.759 98.4474 215.559 104.447 214.626 112.047L213.692 119.114L211.426 111.114C205.426 90.0474 203.426 84.714 199.559 80.4474C195.159 75.3807 193.826 74.8474 192.759 77.514ZM169.159 109.247C169.159 110.047 168.626 110.181 167.826 109.781C167.159 109.381 166.492 108.314 166.492 107.647C166.492 106.847 167.159 106.714 167.826 107.114C168.626 107.514 169.159 108.581 169.159 109.247ZM321.159 127.781C321.159 128.447 319.959 129.114 318.492 129.114C317.026 129.114 315.826 128.447 315.826 127.781C315.826 126.981 317.026 126.447 318.492 126.447C319.959 126.447 321.159 126.981 321.159 127.781ZM323.959 137.114C331.559 137.914 345.026 140.314 353.826 142.581C365.159 145.381 377.026 147.114 394.492 148.447C443.559 152.314 455.159 153.381 455.559 153.781C456.359 154.581 447.026 157.114 438.492 158.314C422.492 160.447 335.959 152.581 322.759 147.647C317.159 145.647 312.226 145.114 298.759 145.114C281.826 145.114 258.892 143.247 257.426 141.781C257.026 141.381 257.426 140.314 258.359 139.381C259.292 138.447 266.092 137.514 276.892 136.981C306.359 135.781 309.959 135.781 323.959 137.114ZM392.892 140.714C391.559 140.981 389.426 140.981 388.226 140.714C386.892 140.314 387.959 140.047 390.492 140.047C393.026 140.047 394.092 140.314 392.892 140.714ZM2115.69 161.381C2117.03 164.581 2117.96 167.514 2117.56 168.047C2116.63 169.781 2111.03 169.247 2102.36 166.847C2095.29 164.847 2094.36 164.314 2095.03 161.914C2095.43 160.314 2095.83 158.314 2095.83 157.381C2095.83 156.314 2098.49 155.781 2104.49 155.781H2113.29L2115.69 161.381ZM2211.16 199.781C2215.16 201.247 2214.49 203.381 2209.43 205.247C2206.89 206.181 2204.89 206.047 2201.96 204.581C2199.69 203.514 2196.63 202.181 2195.16 201.781L2192.49 200.847L2195.16 199.781C2198.89 198.181 2207.03 198.181 2211.16 199.781ZM2197.56 208.714C2195.83 208.981 2193.16 208.981 2191.56 208.714C2189.83 208.447 2191.16 208.181 2194.49 208.181C2197.83 208.181 2199.16 208.447 2197.56 208.714ZM2143.56 226.981C2158.76 228.714 2162.09 229.914 2160.76 233.647C2159.56 236.714 2154.23 236.314 2147.03 232.447C2141.83 229.647 2138.89 229.114 2129.96 229.114C2123.96 229.114 2117.69 228.714 2115.83 228.181L2112.49 227.247L2115.83 226.314C2120.76 224.981 2126.76 225.114 2143.56 226.981ZM2361.03 228.314C2360.76 228.581 2357.56 229.114 2353.83 229.647C2349.29 230.181 2347.83 230.047 2349.16 229.114C2351.03 227.914 2362.36 227.114 2361.03 228.314ZM2055.43 244.581C2055.03 244.981 2053.83 245.114 2052.89 244.714C2051.83 244.314 2052.23 243.914 2053.69 243.914C2055.16 243.781 2055.96 244.181 2055.43 244.581ZM2137.83 245.114C2144.23 245.914 2142.36 246.047 2128.49 246.047C2117.83 246.047 2112.89 245.781 2115.83 245.114C2121.83 243.781 2127.96 243.781 2137.83 245.114ZM2045.16 246.447C2042.49 248.181 2037.56 248.181 2036.49 246.447C2035.96 245.647 2037.96 245.114 2041.43 245.114C2045.56 245.114 2046.63 245.514 2045.16 246.447ZM2211.03 247.647C2213.29 248.581 2213.16 248.981 2208.63 252.447C2203.96 255.914 2203.69 256.047 2201.16 253.781C2198.63 251.514 2197.16 251.781 2192.49 255.781C2188.89 258.981 2183.83 260.047 2183.83 257.781C2183.83 255.647 2190.89 249.914 2195.83 247.914C2199.83 246.314 2207.43 246.181 2211.03 247.647ZM2231.83 249.114C2231.83 249.781 2230.89 250.447 2229.83 250.447C2228.76 250.447 2227.83 249.781 2227.83 249.114C2227.83 248.314 2228.76 247.781 2229.83 247.781C2230.89 247.781 2231.83 248.314 2231.83 249.114ZM1958.36 255.647C1959.83 256.581 1959.56 256.981 1957.43 257.647C1954.09 258.714 1947.56 257.247 1948.63 255.647C1949.56 254.181 1955.96 254.181 1958.36 255.647ZM2135.16 257.114C2134.76 257.781 2132.49 258.447 2130.36 258.447C2127.96 258.447 2126.63 257.914 2127.16 257.114C2127.56 256.314 2129.83 255.781 2131.96 255.781C2134.36 255.781 2135.69 256.314 2135.16 257.114ZM2012.23 258.047C2011.29 258.314 2009.43 258.314 2008.23 258.047C2006.89 257.647 2007.69 257.381 2009.83 257.381C2012.09 257.381 2013.03 257.647 2012.23 258.047ZM2093.56 276.714C2091.83 276.981 2088.89 276.981 2086.89 276.714C2084.76 276.447 2086.23 276.181 2089.83 276.181C2093.56 276.181 2095.16 276.447 2093.56 276.714ZM2087.96 286.314C2090.36 287.247 2087.69 287.647 2077.56 287.647C2069.96 287.781 2063.83 287.514 2063.83 287.114C2063.83 283.914 2080.49 283.381 2087.96 286.314ZM2101.83 298.447C2101.43 299.114 2099.03 299.781 2096.76 299.781C2093.56 299.781 2093.03 299.381 2094.49 298.447C2097.16 296.714 2102.89 296.714 2101.83 298.447ZM2327.83 318.447C2329.29 319.381 2328.36 319.781 2324.49 319.781C2321.56 319.781 2318.23 319.114 2317.16 318.447C2315.69 317.514 2316.63 317.114 2320.49 317.114C2323.43 317.114 2326.76 317.781 2327.83 318.447ZM2344.89 318.047C2343.56 318.314 2341.16 318.314 2339.56 318.047C2337.83 317.781 2338.89 317.514 2341.83 317.514C2344.76 317.381 2346.09 317.647 2344.89 318.047ZM2293.03 331.914C2290.89 332.714 2288.36 332.714 2286.36 331.914C2283.69 330.847 2284.23 330.581 2289.83 330.581C2295.56 330.714 2295.96 330.847 2293.03 331.914ZM2010.09 341.914C2009.69 342.314 2008.49 342.447 2007.56 342.047C2006.49 341.647 2006.89 341.247 2008.36 341.247C2009.83 341.114 2010.63 341.514 2010.09 341.914ZM2432.89 343.381C2431.56 343.647 2429.43 343.647 2428.23 343.381C2426.89 342.981 2427.96 342.714 2430.49 342.714C2433.03 342.714 2434.09 342.981 2432.89 343.381ZM2564.76 360.581C2564.36 360.981 2563.16 361.114 2562.23 360.714C2561.16 360.314 2561.56 359.914 2563.03 359.914C2564.49 359.781 2565.29 360.181 2564.76 360.581ZM2369.83 363.647C2386.76 365.114 2389.96 365.914 2387.83 368.447C2386.89 369.514 2383.69 370.181 2379.43 370.047C2372.23 369.914 2361.83 373.647 2363.29 375.914C2363.69 376.581 2368.36 377.114 2373.69 377.114C2379.43 377.114 2383.96 377.781 2384.89 378.714C2386.89 380.714 2386.89 386.181 2385.03 393.647L2383.56 399.514L2367.43 398.847C2357.69 398.447 2341.56 399.114 2327.43 400.314C2296.63 403.114 2275.69 403.114 2270.49 400.447C2267.03 398.714 2266.63 397.914 2267.43 394.314C2268.36 389.247 2266.63 387.781 2259.03 387.781C2254.89 387.781 2252.23 388.847 2248.49 391.781C2245.69 394.047 2241.83 396.181 2239.96 396.581C2238.09 396.981 2235.83 397.514 2234.89 397.781C2234.09 398.047 2229.56 397.381 2224.89 396.181C2220.36 395.114 2208.23 393.781 2198.09 393.247C2179.56 392.181 2175.29 390.981 2179.16 387.781C2183.69 384.047 2180.89 379.781 2173.83 379.781C2172.09 379.781 2170.36 379.247 2169.96 378.581C2168.36 376.181 2191.69 375.647 2268.49 376.314C2311.83 376.714 2350.36 376.714 2354.23 376.181C2360.89 375.381 2361.16 375.247 2359.03 372.981C2355.69 369.381 2350.09 368.047 2333.16 367.247C2324.76 366.847 2316.09 366.047 2313.83 365.514C2304.49 363.114 2346.89 361.781 2369.83 363.647ZM2366.23 415.381C2364.09 415.647 2360.89 415.647 2358.89 415.381C2356.76 415.114 2358.49 414.847 2362.49 414.847C2366.49 414.847 2368.23 415.114 2366.23 415.381ZM2241.83 422.314L2247.16 423.514H2241.83C2238.89 423.514 2233.56 423.114 2229.83 422.447L2223.16 421.514L2229.83 421.381C2233.56 421.247 2238.89 421.781 2241.83 422.314ZM2184.63 428.581C2188.23 430.047 2193.83 430.847 2202.49 430.847C2214.76 430.847 2221.16 431.914 2221.16 434.047C2221.16 434.714 2216.76 435.114 2211.56 435.114C2206.23 435.114 2197.03 435.381 2191.16 435.781C2180.63 436.447 2180.49 436.447 2178.76 432.714C2177.83 430.714 2177.43 428.447 2177.83 427.781C2178.89 426.047 2178.63 426.047 2184.63 428.581ZM1945.83 429.914C1960.23 430.581 1965.43 431.247 1968.76 433.114C1971.03 434.447 1974.09 435.247 1975.56 434.847C1978.36 434.181 1982.49 437.514 1982.49 440.581C1982.49 443.247 1954.76 443.247 1945.69 440.447C1937.03 437.781 1910.36 433.114 1903.56 433.114C1899.03 433.114 1898.36 432.847 1899.83 431.114C1901.43 429.247 1914.76 427.781 1923.16 428.581C1925.43 428.847 1935.56 429.381 1945.83 429.914ZM2134.89 429.781C2137.29 430.981 2140.63 433.114 2142.49 434.581L2145.83 437.381L2138.89 436.581C2133.69 436.047 2130.89 436.581 2126.89 438.581C2123.43 440.447 2120.49 440.981 2117.83 440.447C2102.36 437.247 2097.56 437.247 2080.76 440.447C2075.83 441.381 2075.69 441.381 2076.63 437.914C2077.29 435.114 2077.03 434.447 2074.89 434.447C2073.43 434.447 2070.36 435.914 2067.83 437.781C2063.83 440.714 2061.96 441.114 2052.63 441.114C2046.63 441.114 2040.89 440.447 2039.83 439.781C2037.29 438.181 2038.49 437.914 2051.16 438.447C2060.23 438.714 2060.76 438.581 2065.56 434.047C2068.23 431.381 2071.83 428.981 2073.43 428.714C2075.16 428.447 2088.76 428.047 2103.56 427.914C2125.43 427.781 2131.56 428.181 2134.89 429.781ZM2020.89 435.781C2036.63 437.247 2035.16 439.114 2016.89 440.714C2000.89 442.181 1992.49 441.914 1991.16 439.781C1990.76 439.114 1992.89 438.314 1995.69 437.781C1998.63 437.381 2001.96 436.047 2003.43 434.981C2004.76 433.914 2007.03 433.514 2008.49 433.914C2009.96 434.314 2015.56 435.247 2020.89 435.781ZM2169.83 434.314C2172.36 435.381 2172.36 435.381 2169.56 436.314C2165.56 437.647 2160.09 436.047 2162.63 434.314C2164.89 432.981 2166.23 432.981 2169.83 434.314ZM1847.83 440.581C1847.83 441.647 1847.16 442.181 1846.49 441.781C1845.69 441.247 1845.43 440.314 1845.83 439.647C1847.03 437.781 1847.83 438.181 1847.83 440.581ZM2172.36 482.047C2172.89 482.714 2176.49 484.047 2180.23 485.247L2187.16 487.247L2162.09 488.314C2148.36 488.714 2136.49 488.847 2135.83 488.447C2135.16 488.047 2126.23 488.314 2116.09 488.981C2103.56 490.047 2093.03 490.047 2083.16 489.114C2066.36 487.514 2052.76 485.114 2053.96 483.914C2055.56 482.181 2170.76 480.447 2172.36 482.047ZM2190.89 482.047C2189.96 482.314 2188.09 482.314 2186.89 482.047C2185.56 481.647 2186.36 481.381 2188.49 481.381C2190.76 481.381 2191.69 481.647 2190.89 482.047ZM2109.83 519.781C2110.36 520.581 2108.89 521.114 2106.63 521.114C2104.36 521.114 2102.49 520.447 2102.49 519.781C2102.49 518.981 2103.96 518.447 2105.69 518.447C2107.56 518.447 2109.43 518.981 2109.83 519.781ZM2086.23 520.714C2084.89 520.981 2082.49 520.981 2080.89 520.714C2079.16 520.447 2080.23 520.181 2083.16 520.181C2086.09 520.047 2087.43 520.314 2086.23 520.714ZM2113.16 527.514C2113.16 528.047 2110.76 529.247 2107.83 530.047C2102.36 531.381 2101.29 530.847 2104.09 528.047C2105.83 526.314 2113.16 525.781 2113.16 527.514ZM2072.89 528.714C2068.63 528.981 2061.43 528.981 2056.89 528.714C2052.23 528.447 2055.69 528.314 2064.49 528.314C2073.29 528.314 2077.03 528.447 2072.89 528.714ZM2007.16 531.114C2002.89 533.114 1981.96 533.781 1974.36 532.181L1969.83 531.247L1973.83 530.314C1976.09 529.781 1985.29 529.381 1994.49 529.381C2009.69 529.381 2010.76 529.514 2007.16 531.114ZM1856.49 531.647C1860.09 532.447 1859.69 532.714 1853.16 533.514C1846.49 534.314 1836.76 533.114 1834.89 531.247C1833.83 530.181 1851.56 530.581 1856.49 531.647ZM1898.89 532.047C1896.76 533.114 1894.09 533.114 1890.23 532.181L1884.49 530.714H1893.16C1900.23 530.581 1901.29 530.847 1898.89 532.047ZM2148.49 554.447C2148.09 555.114 2145.69 555.781 2143.43 555.781C2140.23 555.781 2139.69 555.381 2141.16 554.447C2143.83 552.714 2149.56 552.714 2148.49 554.447ZM1948.49 571.781C1949.03 572.581 1946.09 573.114 1940.49 573.114C1934.89 573.114 1931.96 572.581 1932.49 571.781C1932.89 570.981 1936.49 570.447 1940.49 570.447C1944.49 570.447 1948.09 570.981 1948.49 571.781ZM1915.16 587.914C1909.03 590.714 1896.63 591.381 1897.43 588.714C1898.23 586.714 1903.83 585.381 1913.16 585.381H1920.49L1915.16 587.914ZM1881.16 587.647C1883.96 588.447 1884.09 588.714 1882.09 589.514C1879.03 590.714 1867.69 589.114 1868.63 587.647C1869.43 586.314 1876.36 586.314 1881.16 587.647ZM1653.16 590.447C1653.16 591.247 1642.89 591.781 1624.89 591.781C1606.09 591.781 1597.16 591.247 1598.49 590.447C1601.16 588.714 1653.16 588.714 1653.16 590.447ZM1531.56 591.381C1525.03 591.647 1514.63 591.647 1508.23 591.381C1501.69 591.247 1507.03 590.981 1519.83 590.981C1532.63 590.981 1537.96 591.247 1531.56 591.381ZM1573.56 591.381C1571.83 591.647 1568.89 591.647 1566.89 591.381C1564.76 591.114 1566.23 590.847 1569.83 590.847C1573.56 590.847 1575.16 591.114 1573.56 591.381ZM1684.89 601.781C1686.49 602.981 1688.49 603.781 1689.43 603.647C1694.09 603.114 1695.16 603.914 1692.63 605.781C1690.76 607.114 1686.76 607.781 1679.96 607.781L1669.83 607.647L1674.23 603.781C1679.16 599.247 1680.76 598.981 1684.89 601.781ZM1916.89 602.447C1921.69 604.314 1927.43 605.114 1935.56 605.247L1947.16 605.381L1935.16 607.247C1928.63 608.181 1918.09 609.381 1911.83 609.914C1901.43 610.847 1900.63 610.714 1902.36 608.714C1903.29 607.381 1905.29 606.447 1906.76 606.447C1910.63 606.447 1908.89 603.381 1904.36 602.181C1899.16 600.847 1895.83 601.914 1892.23 606.181L1889.16 609.781L1879.69 606.447C1874.36 604.714 1870.63 603.114 1871.29 602.847C1874.36 601.914 1892.09 600.047 1900.49 599.914C1906.89 599.781 1911.96 600.581 1916.89 602.447ZM1819.83 602.447C1819.83 603.114 1818.63 603.781 1817.29 603.781C1815.83 603.781 1814.23 603.114 1813.83 602.447C1813.29 601.647 1814.49 601.114 1816.36 601.114C1818.23 601.114 1819.83 601.647 1819.83 602.447ZM1560.09 605.381C1557.83 606.447 1556.63 606.447 1555.56 605.381C1554.36 604.181 1555.03 603.781 1558.63 603.914C1562.89 603.914 1563.03 604.047 1560.09 605.381ZM1510.09 605.914C1509.69 606.314 1508.49 606.447 1507.56 606.047C1506.49 605.647 1506.89 605.247 1508.36 605.247C1509.83 605.114 1510.63 605.514 1510.09 605.914ZM1775.16 612.447C1775.16 614.181 1769.83 614.847 1764.09 613.781C1760.49 613.114 1759.83 612.581 1761.29 611.647C1763.69 610.047 1775.16 610.714 1775.16 612.447ZM1728.49 629.114C1728.09 629.781 1726.09 630.447 1724.09 630.447C1721.29 630.447 1720.89 630.181 1722.49 629.114C1725.16 627.381 1729.56 627.381 1728.49 629.114ZM1704.49 639.781C1704.89 640.447 1704.36 641.114 1703.29 641.114C1702.09 641.114 1701.16 640.447 1701.16 639.781C1701.16 638.981 1701.69 638.447 1702.36 638.447C1703.16 638.447 1704.09 638.981 1704.49 639.781ZM1695.96 658.447C1697.29 659.247 1698.49 660.447 1698.49 660.981C1698.49 662.847 1692.49 663.914 1687.96 662.981C1683.96 662.181 1683.83 661.914 1685.96 659.647C1688.49 656.847 1692.09 656.447 1695.96 658.447ZM1742.23 667.381C1741.96 668.981 1740.36 669.914 1737.83 670.181L1733.83 670.447L1737.03 667.781C1740.89 664.447 1742.89 664.314 1742.23 667.381ZM1542.49 675.781C1541.43 676.447 1538.09 676.981 1535.16 676.981C1529.96 676.847 1529.96 676.714 1533.83 675.781C1536.09 675.247 1539.29 674.714 1541.16 674.581C1543.83 674.581 1544.09 674.714 1542.49 675.781ZM1484.36 676.981C1485.29 678.314 1481.29 679.647 1478.76 678.847C1477.96 678.447 1477.43 677.647 1477.96 676.981C1478.89 675.381 1483.43 675.381 1484.36 676.981ZM1404.89 679.114C1412.63 680.314 1411.96 682.047 1403.16 683.114C1394.23 684.314 1377.69 682.714 1379.43 680.981C1381.16 679.247 1391.69 677.247 1395.83 677.781C1397.69 678.047 1401.69 678.714 1404.89 679.114ZM1431.03 680.847C1431.83 682.181 1428.23 687.781 1426.63 687.781C1424.89 687.781 1423.83 684.047 1424.63 681.781C1425.56 679.647 1429.83 678.981 1431.03 680.847ZM1575.83 683.781C1573.96 684.314 1568.63 684.847 1563.83 684.714H1555.16L1561.83 683.781C1565.56 683.247 1570.89 682.847 1573.83 682.847C1578.36 682.714 1578.63 682.847 1575.83 683.781ZM1405.43 692.047C1404.63 692.847 1403.43 693.114 1402.89 692.581C1402.36 692.047 1402.76 691.114 1403.83 690.447C1406.36 688.847 1407.43 690.047 1405.43 692.047ZM1482.49 690.981C1482.49 691.381 1481.96 692.047 1481.16 692.447C1480.49 692.847 1479.83 692.581 1479.83 691.914C1479.83 691.114 1480.49 690.447 1481.16 690.447C1481.96 690.447 1482.49 690.714 1482.49 690.981ZM1650.36 693.247C1655.29 694.981 1655.83 697.114 1651.16 697.114C1649.29 697.114 1647.29 696.047 1646.49 694.447C1644.89 691.381 1644.76 691.381 1650.36 693.247ZM1639.56 695.381C1639.16 697.514 1636.36 697.914 1609.83 698.581C1593.69 698.981 1579.29 698.981 1577.83 698.314C1576.09 697.647 1578.63 697.247 1585.16 697.114C1590.63 696.981 1602.36 696.047 1611.16 695.114C1635.83 692.581 1640.09 692.714 1639.56 695.381ZM1734.36 697.247C1737.56 698.447 1738.23 699.114 1736.89 699.914C1734.09 701.781 1731.03 701.247 1727.69 698.447C1724.63 695.914 1724.63 695.914 1727.29 695.781C1728.89 695.781 1732.09 696.447 1734.36 697.247ZM1453.03 699.647C1454.89 700.847 1442.23 702.447 1431.69 702.447C1424.89 702.447 1423.43 700.981 1427.56 698.447C1429.96 696.981 1449.69 697.914 1453.03 699.647ZM1637.83 704.981C1642.89 705.781 1643.03 706.047 1640.23 707.514C1636.49 709.514 1631.56 709.514 1621.69 707.514L1613.83 705.781L1619.83 704.981C1628.49 703.781 1631.83 703.781 1637.83 704.981ZM1579.16 713.114C1578.76 713.781 1576.89 714.447 1575.03 714.447C1573.16 714.447 1572.09 713.914 1572.49 713.114C1572.89 712.314 1574.76 711.781 1576.63 711.781C1578.49 711.781 1579.56 712.314 1579.16 713.114ZM1277.83 727.381C1281.96 728.047 1282.49 728.447 1280.49 729.247C1277.03 730.581 1256.09 730.714 1251.83 729.381C1245.96 727.647 1268.76 725.914 1277.83 727.381ZM1037.83 731.914C1033.03 733.514 998.759 735.247 1000.09 733.781C1001.03 732.714 1021.69 730.847 1033.83 730.714C1040.76 730.714 1041.29 730.847 1037.83 731.914ZM1086.49 731.647C1086.49 732.181 1079.56 732.847 1071.16 732.847C1061.83 732.981 1056.09 732.447 1056.49 731.647C1057.56 730.181 1086.49 730.047 1086.49 731.647ZM993.826 733.114C995.692 733.914 993.826 734.181 987.826 734.181C980.626 734.047 979.959 733.914 983.826 733.114C990.092 731.781 990.759 731.781 993.826 733.114ZM798.359 740.981C799.559 741.781 798.892 742.314 795.959 742.714C791.826 743.247 790.226 741.914 793.559 740.714C795.959 739.647 796.359 739.647 798.359 740.981ZM1312.49 743.781C1314.09 746.847 1314.09 747.781 1312.89 747.781C1311.96 747.781 1309.96 748.181 1308.49 748.447C1307.03 748.847 1304.89 748.581 1303.83 747.914C1302.23 746.847 1302.36 746.047 1305.16 743.247C1309.16 738.847 1309.96 738.847 1312.49 743.781ZM522.092 743.247C520.492 744.847 492.359 747.647 486.092 746.847C482.626 746.447 480.092 745.781 480.492 745.381C481.426 744.447 499.159 742.981 513.026 742.714C518.492 742.581 522.626 742.847 522.092 743.247ZM597.959 744.447C595.159 746.581 583.692 747.247 585.959 745.247C587.426 743.781 591.292 742.847 596.492 742.581C600.226 742.581 600.359 742.581 597.959 744.447ZM1022.49 747.914L1027.16 748.047L1023.43 749.381C1018.76 751.114 1005.56 749.381 1009.83 747.647C1011.29 747.114 1013.69 746.847 1015.16 747.114C1016.63 747.514 1019.96 747.781 1022.49 747.914ZM1090.36 747.247C1100.36 749.247 1092.63 750.447 1068.89 750.447C1054.89 750.447 1043.69 750.047 1044.09 749.647C1046.63 747.247 1081.03 745.381 1090.36 747.247ZM977.159 749.114C974.092 750.981 959.292 752.181 953.026 750.981L947.159 749.914L953.159 748.981C963.026 747.647 979.426 747.647 977.159 749.114ZM1212.89 748.714C1210.76 748.981 1207.56 748.981 1205.56 748.714C1203.43 748.447 1205.16 748.181 1209.16 748.181C1213.16 748.181 1214.89 748.447 1212.89 748.714ZM664.226 750.047C662.492 750.314 659.559 750.314 657.559 750.047C655.426 749.781 656.892 749.514 660.492 749.514C664.226 749.514 665.826 749.781 664.226 750.047ZM819.826 751.247C841.426 751.247 860.626 751.514 862.492 751.781C864.359 752.047 844.226 752.981 817.826 753.914C781.826 755.247 767.826 755.247 761.559 754.181C754.892 752.981 749.826 753.114 734.492 755.114C722.092 756.714 711.159 757.247 702.092 756.847C686.759 756.047 669.159 752.181 672.092 750.181C673.159 749.381 694.359 749.381 727.159 750.047C756.492 750.581 798.226 751.114 819.826 751.247ZM911.826 750.447C914.092 751.247 911.826 751.514 904.492 751.647C897.159 751.647 894.492 751.381 895.826 750.447C898.226 748.981 907.026 748.981 911.826 750.447ZM931.426 749.914C931.026 750.314 929.826 750.447 928.892 750.047C927.826 749.647 928.226 749.247 929.692 749.247C931.159 749.114 931.959 749.514 931.426 749.914ZM600.492 754.447L604.492 756.314L599.426 756.847C596.626 757.114 590.626 756.314 586.092 755.247C578.759 753.381 576.892 753.381 569.826 755.114C560.492 757.381 557.159 757.514 557.159 755.914C557.159 751.781 592.092 750.714 600.492 754.447ZM1207.83 762.981C1212.63 765.247 1213.96 766.314 1212.23 766.714C1208.23 767.514 1204.49 766.447 1200.36 762.981C1195.16 758.847 1198.63 758.714 1207.83 762.981ZM417.159 811.114C435.559 814.047 437.559 814.581 436.226 815.914C433.692 818.447 413.559 819.647 373.826 819.647C337.292 819.647 332.892 819.514 335.826 817.781C337.959 816.581 343.292 815.781 351.159 815.781C358.359 815.781 369.426 814.447 378.492 812.581C397.026 808.714 400.892 808.581 417.159 811.114ZM1070.49 809.647C1070.49 810.047 1069.96 810.714 1069.16 811.114C1068.49 811.514 1067.83 811.247 1067.83 810.581C1067.83 809.781 1068.49 809.114 1069.16 809.114C1069.96 809.114 1070.49 809.381 1070.49 809.647ZM1101.29 812.981L1107.16 814.181L1099.56 814.314C1092.09 814.447 1089.43 813.247 1091.16 810.447C1091.83 809.381 1092.63 809.381 1093.83 810.447C1094.76 811.247 1098.09 812.447 1101.29 812.981ZM535.159 813.114C534.759 813.781 532.892 814.447 531.026 814.447C529.159 814.447 528.092 813.914 528.492 813.114C528.892 812.314 530.759 811.781 532.626 811.781C534.492 811.781 535.559 812.314 535.159 813.114ZM601.426 813.114C615.826 813.114 617.292 813.381 616.892 815.381C616.492 817.514 614.359 817.781 595.826 817.781C579.426 817.914 574.492 817.514 571.826 815.781C568.492 813.781 568.492 813.781 575.159 812.981C578.892 812.581 582.626 812.447 583.559 812.714C584.626 812.847 592.626 813.114 601.426 813.114ZM649.692 814.447L653.692 816.981L649.959 818.314C644.892 820.314 641.292 820.181 633.026 817.514L626.092 815.247L629.959 813.514C635.959 810.981 645.292 811.381 649.692 814.447ZM692.492 813.114C692.092 813.781 689.426 814.447 686.759 814.447C683.026 814.447 682.359 814.047 683.826 813.114C686.492 811.381 693.559 811.381 692.492 813.114ZM504.359 813.914C507.292 815.114 507.026 816.714 503.692 817.514C500.492 818.314 494.226 815.914 495.292 814.314C496.092 812.981 501.292 812.714 504.359 813.914ZM853.026 815.781L856.492 816.714L853.026 818.181C849.292 819.647 791.026 819.381 789.426 817.914C789.026 817.514 792.226 817.114 796.626 816.981C800.892 816.981 810.759 816.181 818.492 815.114C831.826 813.381 845.692 813.647 853.026 815.781ZM977.826 814.981C989.426 815.381 1000.23 814.981 1003.43 814.181C1006.63 813.381 1011.29 813.247 1014.09 813.781C1018.63 814.581 1018.89 814.847 1016.49 816.181C1013.69 817.914 945.959 818.181 941.826 816.581C937.292 814.847 941.426 813.381 949.426 813.914C954.092 814.181 966.892 814.714 977.826 814.981ZM1083.16 814.447C1083.56 815.114 1083.29 815.781 1082.63 815.781C1081.83 815.781 1081.16 815.114 1081.16 814.447C1081.16 813.647 1081.43 813.114 1081.69 813.114C1082.09 813.114 1082.76 813.647 1083.16 814.447ZM458.892 815.381C457.959 815.647 456.359 815.647 455.559 815.381C454.626 814.981 455.292 814.714 457.159 814.714C459.026 814.714 459.692 814.981 458.892 815.381ZM472.492 815.781C471.426 817.514 466.492 817.514 463.826 815.781C462.359 814.847 463.426 814.447 467.559 814.447C471.026 814.447 473.026 814.981 472.492 815.781ZM740.492 816.047L745.826 817.647L733.826 818.847C727.292 819.514 716.759 819.514 710.492 818.981L699.159 817.914L707.159 816.314C717.692 814.181 733.826 814.047 740.492 816.047ZM922.226 816.047C921.826 817.247 915.692 817.914 900.759 818.447C889.159 818.847 879.826 818.714 879.826 818.181C879.826 816.847 895.826 815.247 914.892 814.714C920.626 814.447 922.626 814.847 922.226 816.047ZM217.159 873.114C217.159 873.781 216.626 874.447 215.826 874.447C215.159 874.447 214.492 873.781 214.492 873.114C214.492 872.314 215.159 871.781 215.826 871.781C216.626 871.781 217.159 872.314 217.159 873.114ZM221.159 874.981C221.159 875.381 220.626 876.047 219.826 876.447C219.159 876.847 218.492 876.581 218.492 875.914C218.492 875.114 219.159 874.447 219.826 874.447C220.626 874.447 221.159 874.714 221.159 874.981Z" fill="#FEF2EF"/>
<path d="M2125.43 433.381C2125.83 434.314 2127.16 435.381 2128.36 435.514C2129.96 435.914 2130.63 435.381 2130.23 434.181C2129.83 433.248 2128.49 432.181 2127.29 432.048C2125.69 431.648 2125.03 432.181 2125.43 433.381Z" fill="#FEF2EF"/>
<path d="M2017.16 122.581C2013.96 123.914 2013.96 124.048 2016.36 125.914C2019.56 128.181 2020.49 128.181 2024.09 126.314C2026.89 124.848 2026.89 124.714 2024.49 122.981C2021.56 120.848 2021.56 120.848 2017.16 122.581Z" fill="#FEF2EF"/>
<path d="M1976.09 131.248C1974.49 132.314 1973.16 134.048 1973.16 134.981C1973.16 137.648 1978.23 143.648 1982.49 145.781C1985.96 147.514 1986.89 147.514 1992.49 144.981C1996.89 142.981 2000.76 142.314 2005.56 142.714C2011.69 143.114 2012.49 142.848 2012.89 140.448C2013.56 135.914 2010.09 132.981 2001.83 130.981C1991.03 128.448 1979.83 128.581 1976.09 131.248Z" fill="#FEF2EF"/>
<path d="M2192.76 140.714C2191.83 142.448 2195.69 150.448 2197.96 151.381C2200.36 152.314 2209.16 147.781 2209.16 145.648C2209.16 141.648 2194.63 137.381 2192.76 140.714Z" fill="#FEF2EF"/>
<path d="M2339.83 189.114C2338.09 190.314 2338.09 190.581 2339.83 191.781C2342.36 193.514 2347.83 193.514 2347.83 191.781C2347.83 191.114 2346.63 189.914 2345.29 189.114C2342.09 187.514 2342.36 187.514 2339.83 189.114Z" fill="#FEF2EF"/>
<path d="M2356.49 190.981C2354.09 192.714 2354.09 192.847 2357.03 193.781C2359.69 194.581 2366.49 191.647 2366.49 189.781C2366.49 188.314 2358.89 189.247 2356.49 190.981Z" fill="#FEF2EF"/>
<path d="M2532.36 193.648C2529.96 195.514 2529.96 195.648 2532.23 196.448C2535.29 197.648 2538.49 196.314 2538.49 193.781C2538.49 191.248 2535.83 191.248 2532.36 193.648Z" fill="#FEF2EF"/>
<path d="M2479.16 210.448C2478.23 211.914 2479.29 212.448 2485.83 213.648L2489.83 214.581L2486.49 211.781C2482.76 208.848 2480.36 208.448 2479.16 210.448Z" fill="#FEF2EF"/>
<path d="M2523.03 212.314C2520.63 214.181 2520.63 214.314 2522.89 215.248C2524.23 215.648 2526.89 215.381 2528.89 214.448C2532.23 212.848 2532.36 212.714 2529.83 211.648C2526.09 210.181 2525.96 210.181 2523.03 212.314Z" fill="#FEF2EF"/>
<path d="M2436.76 212.714C2434.63 214.714 2436.09 215.914 2440.09 215.514C2445.56 214.981 2446.76 211.781 2441.56 211.781C2439.29 211.781 2437.16 212.181 2436.76 212.714Z" fill="#FEF2EF"/>
<path d="M2439.29 240.447C2439.83 241.514 2440.89 242.447 2441.96 242.447C2443.03 242.447 2443.83 241.514 2443.83 240.447C2443.83 239.381 2442.63 238.447 2441.16 238.447C2439.43 238.447 2438.76 239.114 2439.29 240.447Z" fill="#FEF2EF"/>
<path d="M2543.16 258.314C2542.76 258.981 2543.16 260.047 2543.83 260.447C2545.96 261.781 2552.09 259.914 2551.16 258.447C2550.09 256.714 2544.23 256.714 2543.16 258.314Z" fill="#FEF2EF"/>
<path d="M2424.49 289.248C2423.96 290.048 2423.83 290.981 2424.23 291.381C2425.16 292.314 2427.83 290.581 2427.83 288.981C2427.83 287.381 2425.56 287.381 2424.49 289.248Z" fill="#FEF2EF"/>
<path d="M2320.09 290.18C2317.16 292.047 2325.56 294.847 2330.63 293.78C2333.69 293.114 2334.36 292.447 2333.03 291.78C2329.83 289.914 2321.96 288.98 2320.09 290.18Z" fill="#FEF2EF"/>
<path d="M2443.56 315.381C2444.49 315.781 2445.69 315.647 2446.09 315.247C2446.63 314.847 2445.83 314.447 2444.36 314.581C2442.89 314.581 2442.49 314.981 2443.56 315.381Z" fill="#FEF2EF"/>
<path d="M2618.76 369.381C2619.43 371.381 2623.69 371.781 2624.23 369.781C2624.36 368.981 2623.03 368.181 2621.29 368.047C2619.16 367.647 2618.36 368.181 2618.76 369.381Z" fill="#FEF2EF"/>
<path d="M2425.43 402.314C2422.76 403.914 2424.09 408.447 2427.03 408.447C2430.63 408.447 2433.16 404.047 2430.49 402.447C2428.09 400.847 2427.69 400.847 2425.43 402.314Z" fill="#FEF2EF"/>
<path d="M2473.43 402.715C2471.29 404.848 2471.43 407.781 2473.69 407.781C2474.76 407.781 2477.29 407.115 2479.43 406.315C2483.03 404.981 2483.03 404.848 2480.63 402.981C2477.43 400.715 2475.56 400.581 2473.43 402.715Z" fill="#FEF2EF"/>
<path d="M2293.96 423.647C2293.03 425.114 2296.89 426.714 2298.63 425.647C2299.29 425.247 2299.56 424.314 2299.16 423.647C2298.09 422.047 2294.89 422.047 2293.96 423.647Z" fill="#FEF2EF"/>
<path d="M2484.49 423.781C2483.96 424.714 2484.09 425.914 2484.89 426.714C2486.76 428.581 2490.89 426.981 2490.23 424.714C2489.43 422.581 2485.69 421.914 2484.49 423.781Z" fill="#FEF2EF"/>
<path d="M2371.16 430.181L2367.16 432.448L2375.03 432.848C2383.96 433.381 2387.69 431.381 2381.96 429.114C2377.16 427.381 2375.96 427.514 2371.16 430.181Z" fill="#FEF2EF"/>
<path d="M2491.03 447.781C2481.96 452.448 2477.69 455.381 2478.76 456.448C2479.16 456.848 2482.36 457.914 2485.83 458.848C2489.16 459.781 2491.96 460.981 2491.96 461.781C2491.96 462.448 2487.96 463.514 2483.16 464.181C2478.23 464.714 2473.16 465.781 2471.69 466.448C2468.89 468.048 2467.96 475.114 2470.89 474.181C2471.69 473.781 2475.83 472.448 2479.83 471.114C2483.83 469.781 2488.63 467.648 2490.49 466.448C2493.16 464.581 2495.69 464.181 2503.16 464.714C2514.63 465.514 2517.96 463.781 2516.63 457.648C2516.09 455.381 2513.96 451.381 2511.69 448.714C2506.49 442.448 2501.96 442.314 2491.03 447.781Z" fill="#FEF2EF"/>
<path d="M2777.16 445.914C2777.16 446.981 2777.83 447.514 2778.49 447.114C2779.29 446.714 2779.83 445.781 2779.83 444.981C2779.83 444.314 2779.29 443.781 2778.49 443.781C2777.83 443.781 2777.16 444.714 2777.16 445.914Z" fill="#FEF2EF"/>
<path d="M2571.16 449.648C2569.69 450.714 2569.03 452.314 2569.56 453.648C2570.23 455.514 2572.89 455.781 2588.09 455.648C2608.49 455.514 2614.23 454.314 2605.83 451.914C2602.89 451.114 2595.96 450.048 2590.49 449.648C2585.03 449.248 2578.89 448.714 2577.03 448.448C2575.03 448.181 2572.36 448.714 2571.16 449.648Z" fill="#FEF2EF"/>
<path d="M2584.49 462.847C2581.56 463.781 2579.16 465.381 2579.16 466.314C2579.16 470.314 2589.03 472.981 2621.56 477.914C2649.96 482.047 2655.16 482.581 2657.96 481.114C2663.56 478.047 2661.69 476.047 2649.96 472.447C2619.69 463.247 2594.76 459.514 2584.49 462.847Z" fill="#FEF2EF"/>
<path d="M2516.09 468.581C2512.76 470.848 2512.23 474.448 2515.16 474.448C2516.23 474.448 2518.23 475.648 2519.69 477.248L2522.23 480.048L2527.29 476.715C2530.23 474.981 2533.96 472.981 2535.83 472.448C2539.03 471.381 2539.03 471.248 2533.83 468.981C2527.29 465.915 2520.09 465.781 2516.09 468.581Z" fill="#FEF2EF"/>
<path d="M2385.16 475.781C2385.16 476.448 2386.09 477.114 2387.16 477.114C2388.23 477.114 2389.16 476.448 2389.16 475.781C2389.16 474.981 2388.23 474.448 2387.16 474.448C2386.09 474.448 2385.16 474.981 2385.16 475.781Z" fill="#FEF2EF"/>
<path d="M2291.16 478.448C2290.76 479.115 2291.29 479.781 2292.36 479.781C2293.56 479.781 2294.49 479.115 2294.49 478.448C2294.49 477.648 2293.96 477.115 2293.29 477.115C2292.49 477.115 2291.56 477.648 2291.16 478.448Z" fill="#FEF2EF"/>
<path d="M2514.49 480.714C2507.03 481.781 2505.16 482.581 2502.49 485.381C2497.83 490.447 2498.89 492.181 2506.23 491.114C2518.63 489.381 2524.63 485.514 2521.83 481.114C2521.03 479.781 2520.49 479.781 2514.49 480.714Z" fill="#FEF2EF"/>
<path d="M2547.16 482.314C2544.23 483.648 2540.63 485.781 2539.16 486.981C2536.63 489.114 2537.03 489.248 2546.49 488.714C2557.69 488.181 2568.63 484.448 2565.03 482.448C2560.36 479.781 2552.63 479.648 2547.16 482.314Z" fill="#FEF2EF"/>
<path d="M2579.83 484.448C2578.49 486.048 2578.63 486.581 2580.23 487.248C2582.76 488.181 2588.23 485.381 2587.16 483.648C2585.96 481.781 2581.69 482.181 2579.83 484.448Z" fill="#FEF2EF"/>
<path d="M2601.43 487.114C2605.16 489.247 2611.03 488.447 2607.56 486.314C2606.63 485.647 2604.09 485.114 2601.83 485.247H2597.83L2601.43 487.114Z" fill="#FEF2EF"/>
<path d="M2559.56 493.914C2557.43 494.981 2555.83 496.448 2555.83 497.114C2555.83 499.114 2570.36 500.314 2574.23 498.448L2577.83 496.848L2572.49 494.448C2566.09 491.381 2564.23 491.248 2559.56 493.914Z" fill="#FEF2EF"/>
<path d="M2488.76 496.314C2486.09 497.381 2482.89 498.981 2481.69 499.914C2479.83 501.381 2480.23 501.781 2484.76 503.114L2489.83 504.581L2484.49 507.381C2481.56 508.848 2477.03 510.581 2474.49 511.114C2471.96 511.648 2468.36 512.981 2466.63 514.048C2463.56 516.048 2463.43 516.181 2465.83 517.914C2472.09 522.448 2496.89 518.848 2508.49 511.781C2517.16 506.448 2529.16 501.114 2534.36 500.314C2543.03 498.981 2541.16 496.314 2530.89 495.381C2515.83 493.914 2494.23 494.448 2488.76 496.314Z" fill="#FEF2EF"/>
<path d="M2385.83 505.914C2384.36 506.181 2377.03 507.781 2369.43 509.381C2351.29 513.248 2354.23 515.114 2378.49 515.114C2400.89 515.114 2418.49 510.581 2409.69 507.248C2406.63 506.048 2389.16 505.114 2385.83 505.914Z" fill="#FEF2EF"/>
<path d="M2408.09 520.314C2404.36 522.314 2405.16 523.114 2415.29 528.181C2420.36 530.714 2422.49 531.248 2423.69 530.048C2426.63 527.114 2425.16 523.914 2419.83 521.114C2413.83 518.048 2412.23 517.914 2408.09 520.314Z" fill="#FEF2EF"/>
<path d="M2192.76 575.914C2191.56 576.714 2190.49 577.78 2190.49 578.447C2190.49 580.047 2195.83 580.18 2198.36 578.58C2201.16 576.714 2195.83 574.314 2192.76 575.914Z" fill="#FEF2EF"/>
<path d="M2173.83 577.114C2173.43 577.781 2173.56 578.447 2174.36 578.447C2175.03 578.447 2176.09 577.781 2176.49 577.114C2176.89 576.314 2176.76 575.781 2175.96 575.781C2175.29 575.781 2174.23 576.314 2173.83 577.114Z" fill="#FEF2EF"/>
<path d="M2133.96 580.847C2132.76 582.847 2136.49 585.247 2139.03 584.314C2140.23 583.78 2141.03 582.714 2140.76 581.914C2140.09 580.047 2135.03 579.247 2133.96 580.847Z" fill="#FEF2EF"/>
<path d="M2114.49 588.448C2115.83 590.181 2115.56 591.381 2112.49 595.781C2107.96 602.314 2109.03 604.314 2116.63 603.381C2120.76 602.981 2124.63 601.114 2129.43 597.514C2133.29 594.581 2137.96 591.381 2139.83 590.448L2143.16 588.714L2140.09 587.381C2138.09 586.448 2135.56 586.581 2131.96 587.514C2125.69 589.514 2117.56 589.514 2116.49 587.781C2116.09 586.981 2115.03 586.448 2114.23 586.448C2113.43 586.448 2113.43 587.248 2114.49 588.448Z" fill="#FEF2EF"/>
<path d="M2164.49 592.314C2160.89 593.248 2156.63 594.581 2155.29 595.381C2152.76 596.714 2152.89 596.848 2155.69 598.314C2160.36 600.848 2166.49 599.648 2169.56 595.514C2171.16 593.514 2172.09 591.648 2171.69 591.381C2171.43 591.114 2168.23 591.514 2164.49 592.314Z" fill="#FEF2EF"/>
<path d="M2161.16 604.048C2152.76 604.715 2139.69 605.381 2132.23 605.515C2119.83 605.781 2118.36 606.048 2115.56 608.981L2112.49 612.048L2136.49 611.248C2163.16 610.448 2185.16 606.981 2185.16 603.648C2185.16 602.315 2183.29 602.315 2161.16 604.048Z" fill="#FEF2EF"/>
<path d="M2095.83 611.248C2095.83 612.448 2096.76 613.115 2098.09 612.848C2101.43 612.181 2101.83 609.115 2098.63 609.115C2097.03 609.115 2095.83 609.915 2095.83 611.248Z" fill="#FEF2EF"/>
<path d="M2081.16 613.114C2081.16 613.781 2082.63 614.447 2084.36 614.447C2086.23 614.447 2088.09 613.781 2088.49 613.114C2089.03 612.314 2087.56 611.781 2085.29 611.781C2083.03 611.781 2081.16 612.314 2081.16 613.114Z" fill="#FEF2EF"/>
<path d="M1921.16 619.648C1906.76 622.981 1906.49 623.248 1912.49 624.981C1923.43 628.048 1937.29 625.515 1942.36 619.381C1943.96 617.381 1943.56 617.115 1937.69 617.248C1934.09 617.248 1926.63 618.448 1921.16 619.648Z" fill="#FEF2EF"/>
<path d="M1810.49 633.247C1810.49 633.914 1811.16 634.181 1811.83 633.781C1812.63 633.381 1813.16 632.714 1813.16 632.314C1813.16 632.047 1812.63 631.781 1811.83 631.781C1811.16 631.781 1810.49 632.447 1810.49 633.247Z" fill="#FEF2EF"/>
<path d="M1855.29 647.647C1854.49 648.98 1859.69 650.714 1861.43 649.647C1861.96 649.247 1862.49 648.447 1862.49 647.647C1862.49 646.047 1856.23 646.047 1855.29 647.647Z" fill="#FEF2EF"/>
<path d="M1891.96 680.981C1891.03 681.648 1890.63 682.848 1891.03 683.648C1892.23 685.515 1896.49 685.515 1900.09 683.648C1902.36 682.448 1902.49 681.915 1901.03 680.981C1898.63 679.515 1894.36 679.515 1891.96 680.981Z" fill="#FEF2EF"/>
<path d="M1797.16 687.78C1795.16 688.98 1794.89 688.847 1801.96 691.114C1803.16 691.514 1806.49 691.114 1809.56 690.314C1813.56 689.247 1814.49 688.58 1813.03 687.647C1810.63 686.18 1799.69 686.18 1797.16 687.78Z" fill="#FEF2EF"/>
<path d="M2773.69 694.981C2772.76 698.981 2775.43 707.647 2777.83 708.581C2778.76 708.981 2780.89 708.714 2782.36 707.781C2785.56 706.047 2785.16 701.381 2781.16 695.781C2777.96 691.114 2774.76 690.847 2773.69 694.981Z" fill="#FEF2EF"/>
<path d="M2763.83 699.781C2763.83 700.581 2761.69 702.181 2759.03 703.247C2753.03 705.781 2753.29 709.647 2759.43 710.181C2764.23 710.714 2767.96 706.714 2766.89 702.314C2766.09 699.381 2763.83 697.514 2763.83 699.781Z" fill="#FEF2EF"/>
<path d="M2723.43 702.047C2721.69 703.647 2722.49 707.78 2724.49 707.78C2725.69 707.78 2726.49 706.58 2726.49 704.447C2726.49 701.247 2725.16 700.18 2723.43 702.047Z" fill="#FEF2EF"/>
<path d="M1649.43 720.98C1647.03 722.447 1650.36 723.78 1656.09 723.78C1659.56 723.78 1659.96 723.514 1658.49 721.78C1656.63 719.647 1652.23 719.114 1649.43 720.98Z" fill="#FEF2EF"/>
<path d="M1591.83 731.247C1583.83 732.181 1567.83 735.914 1563.16 737.914C1559.96 739.247 1558.49 740.714 1558.23 743.247C1557.83 746.981 1557.56 747.247 1547.29 752.047C1539.56 755.781 1538.89 757.647 1545.03 758.181C1552.76 758.981 1557.69 757.381 1567.29 751.114C1578.36 743.914 1590.76 739.781 1601.16 739.781C1606.89 739.781 1609.69 739.114 1612.36 736.981C1614.49 735.247 1615.56 733.647 1614.89 732.981C1613.43 731.514 1598.63 730.447 1591.83 731.247Z" fill="#FEF2EF"/>
<path d="M1593.16 753.114C1589.43 756.847 1589.83 758.447 1594.36 758.447C1598.09 758.447 1605.16 754.047 1605.16 751.647C1605.16 749.247 1595.83 750.447 1593.16 753.114Z" fill="#FEF2EF"/>
<path d="M1380.49 763.781C1378.89 764.314 1376.89 765.781 1375.96 766.981C1374.36 768.848 1374.63 769.114 1377.56 769.114C1381.43 769.114 1387.83 766.581 1387.83 764.981C1387.83 764.314 1384.23 762.181 1383.43 762.581C1383.29 762.581 1381.96 763.114 1380.49 763.781Z" fill="#FEF2EF"/>
<path d="M1489.16 763.781C1487.43 764.981 1487.43 765.248 1489.16 766.448C1490.23 767.115 1491.96 767.781 1492.89 767.781C1495.43 767.781 1499.83 765.248 1499.83 763.781C1499.83 762.048 1491.69 762.048 1489.16 763.781Z" fill="#FEF2EF"/>
<path d="M1545.69 764.447C1541.83 765.514 1536.76 767.114 1534.36 768.181L1529.83 770.181L1533.83 771.781C1536.89 773.114 1540.63 773.114 1550.49 771.914C1575.16 768.981 1580.23 768.047 1582.23 765.914C1584.09 764.047 1583.29 763.914 1573.03 764.181C1566.89 764.314 1559.69 764.047 1557.16 763.514C1554.36 762.847 1549.83 763.247 1545.69 764.447Z" fill="#FEF2EF"/>
<path d="M1603.16 763.781C1602.76 764.448 1603.56 765.114 1605.03 765.114C1606.49 765.114 1608.09 764.448 1608.49 763.781C1608.89 762.981 1608.09 762.448 1606.63 762.448C1605.16 762.448 1603.56 762.981 1603.16 763.781Z" fill="#FEF2EF"/>
<path d="M1427.83 765.914C1424.49 766.847 1414.89 768.447 1406.49 769.114C1398.09 769.914 1389.96 770.98 1388.49 771.38L1385.83 772.18L1388.49 773.247C1393.03 774.98 1425.16 774.447 1438.49 772.447C1445.43 771.38 1455.03 769.514 1459.83 768.18L1468.49 765.78L1459.16 764.98C1443.83 763.514 1434.23 763.914 1427.83 765.914Z" fill="#FEF2EF"/>
<path d="M1590.49 765.247C1590.49 765.914 1591.16 766.181 1591.83 765.781C1592.63 765.381 1593.16 764.714 1593.16 764.314C1593.16 764.047 1592.63 763.781 1591.83 763.781C1591.16 763.781 1590.49 764.447 1590.49 765.247Z" fill="#FEF2EF"/>
<path d="M1521.16 770.448C1521.16 771.115 1521.83 771.781 1522.49 771.781C1523.29 771.781 1523.83 771.115 1523.83 770.448C1523.83 769.648 1523.29 769.115 1522.49 769.115C1521.83 769.115 1521.16 769.648 1521.16 770.448Z" fill="#FEF2EF"/>
<path d="M1248.76 790.181C1246.36 792.714 1245.69 797.114 1247.56 797.114C1248.23 797.114 1249.69 796.314 1251.03 795.381C1252.76 794.181 1253.03 792.981 1252.23 790.714C1251.03 787.648 1251.03 787.648 1248.76 790.181Z" fill="#FEF2EF"/>
<path d="M623.692 828.448C623.292 828.715 618.492 829.648 613.026 830.448C599.159 832.315 595.826 833.115 595.826 834.581C595.826 835.248 600.092 835.781 605.292 835.781C612.626 835.781 615.959 835.115 619.959 832.848C622.892 831.248 625.159 829.515 625.159 828.848C625.159 827.648 624.626 827.515 623.692 828.448Z" fill="#FEF2EF"/>
<path d="M481.826 832.047C480.359 832.98 472.226 834.047 463.959 834.714C445.426 835.914 440.892 837.38 441.426 842.18L441.826 845.514L469.826 845.247C494.092 844.98 499.826 844.58 512.492 841.647C520.626 839.78 530.626 838.047 534.759 837.514C543.292 836.58 543.692 835.247 535.826 833.114C531.959 832.047 526.626 832.18 516.626 833.247C504.359 834.714 502.092 834.58 496.892 832.714C490.092 830.047 485.559 829.914 481.826 832.047Z" fill="#FEF2EF"/>
<path d="M555.959 834.314C554.492 835.247 554.759 835.647 557.026 836.447C559.959 837.381 562.492 836.447 562.492 834.314C562.492 832.847 558.492 832.714 555.959 834.314Z" fill="#FEF2EF"/>
<path d="M627.159 834.448C626.759 835.115 627.026 835.781 627.692 835.781C628.492 835.781 629.159 835.115 629.159 834.448C629.159 833.648 628.892 833.115 628.626 833.115C628.226 833.115 627.559 833.648 627.159 834.448Z" fill="#FEF2EF"/>
<path d="M382.226 841.247C378.759 843.114 379.292 844.58 383.826 846.447C388.226 848.314 390.626 847.114 393.292 842.18C394.492 840.047 393.959 839.78 389.559 839.78C386.759 839.78 383.426 840.447 382.226 841.247Z" fill="#FEF2EF"/>
<path d="M362.092 843.381C361.559 843.781 361.159 844.981 361.159 846.048C361.159 848.314 364.626 848.314 365.559 845.914C366.626 843.114 364.092 841.248 362.092 843.381Z" fill="#FEF2EF"/>
<path d="M311.292 846.714C307.026 852.714 312.226 853.647 317.826 847.78L321.692 843.78H317.426C314.759 843.78 312.626 844.714 311.292 846.714Z" fill="#FEF2EF"/>
<path d="M328.759 844.714C326.626 846.714 327.959 849.248 330.759 848.848C334.626 848.314 335.826 843.781 332.092 843.781C330.759 843.781 329.159 844.181 328.759 844.714Z" fill="#FEF2EF"/>
<path d="M343.959 844.981C342.492 845.914 342.626 846.447 344.892 847.647C348.626 849.647 348.892 849.514 350.492 846.447C351.692 844.181 351.559 843.781 348.892 843.781C347.159 843.781 345.026 844.314 343.959 844.981Z" fill="#FEF2EF"/>
<path d="M235.426 876.581C234.359 877.648 235.559 879.781 237.292 879.781C237.959 879.781 238.492 878.848 238.492 877.781C238.492 875.781 236.892 875.115 235.426 876.581Z" fill="#FEF2EF"/>
</svg>
